<svg>
    <symbol id="arrow" viewBox="0 0 29 29" fill="none" xmlns="http://www.w3.org/2000/svg">
        <path
            d="M20.3937 12.3768H27.346C27.4299 12.3769 27.5122 12.4008 27.5831 12.4459C27.6539 12.491 27.7105 12.5553 27.7461 12.6314C27.7817 12.7075 27.7949 12.7921 27.7842 12.8754C27.7734 12.9587 27.7392 13.0372 27.6854 13.1018L24.2093 17.2745C24.1678 17.3243 24.1159 17.3643 24.0572 17.3918C23.9986 17.4192 23.9346 17.4335 23.8698 17.4335C23.805 17.4335 23.7411 17.4192 23.6824 17.3918C23.6237 17.3643 23.5718 17.3243 23.5303 17.2745L20.0542 13.1018C20.0004 13.0372 19.9662 12.9587 19.9554 12.8754C19.9447 12.7921 19.9579 12.7075 19.9935 12.6314C20.0292 12.5553 20.0857 12.491 20.1566 12.4459C20.2274 12.4008 20.3097 12.3769 20.3937 12.3768ZM0.944307 15.9131H7.89658C7.98057 15.9131 8.06281 15.8891 8.13368 15.844C8.20455 15.7989 8.2611 15.7346 8.29672 15.6585C8.33234 15.5825 8.34555 15.4978 8.33481 15.4145C8.32407 15.3312 8.28981 15.2527 8.23606 15.1882L4.75992 11.0154C4.71844 10.9656 4.66653 10.9256 4.60786 10.8981C4.5492 10.8707 4.48522 10.8564 4.42044 10.8564C4.35567 10.8564 4.29168 10.8707 4.23302 10.8981C4.17436 10.9256 4.12245 10.9656 4.08096 11.0154L0.604827 15.1882C0.551072 15.2527 0.516817 15.3312 0.506073 15.4145C0.495329 15.4978 0.508541 15.5825 0.544161 15.6585C0.579782 15.7346 0.636337 15.7989 0.707204 15.844C0.77807 15.8891 0.860315 15.9131 0.944307 15.9131Z"
            fill="#DA1713" />
        <path fill-rule="evenodd" clip-rule="evenodd"
            d="M14.1451 5.30475C11.401 5.30475 8.94681 6.55481 7.32544 8.5192C7.25304 8.61304 7.16251 8.69136 7.05924 8.74951C6.95596 8.80766 6.84204 8.84445 6.72426 8.8577C6.60648 8.87094 6.48724 8.86036 6.37363 8.8266C6.26002 8.79283 6.15436 8.73657 6.06293 8.66114C5.9715 8.58572 5.89617 8.49269 5.84141 8.38757C5.78666 8.28245 5.7536 8.1674 5.74421 8.04925C5.73481 7.9311 5.74927 7.81226 5.78672 7.69981C5.82418 7.58736 5.88386 7.48359 5.96222 7.39467C7.25682 5.82728 8.97438 4.66471 10.9106 4.04523C12.8468 3.42576 14.9202 3.37546 16.8842 3.90031C18.8482 4.42515 20.6201 5.50307 21.9892 7.00584C23.3583 8.50861 24.267 10.373 24.6071 12.3772H22.8089C22.4007 10.3807 21.3155 8.58637 19.7369 7.29768C18.1582 6.00899 16.183 5.305 14.1451 5.30475ZM5.48129 15.9135C5.81601 17.5483 6.60644 19.0551 7.76125 20.2598C8.91605 21.4645 10.3881 22.3178 12.0074 22.7213C13.6266 23.1248 15.327 23.0619 16.912 22.5399C18.4971 22.018 19.9021 21.0582 20.9648 19.7715C21.0372 19.6777 21.1277 19.5994 21.231 19.5412C21.3342 19.4831 21.4482 19.4463 21.5659 19.433C21.6837 19.4198 21.803 19.4304 21.9166 19.4641C22.0302 19.4979 22.1358 19.5542 22.2273 19.6296C22.3187 19.705 22.394 19.7981 22.4488 19.9032C22.5035 20.0083 22.5366 20.1233 22.546 20.2415C22.5554 20.3596 22.5409 20.4785 22.5035 20.5909C22.466 20.7034 22.4063 20.8072 22.328 20.8961C21.0334 22.4635 19.3158 23.626 17.3796 24.2455C15.4434 24.865 13.37 24.9153 11.406 24.3904C9.44198 23.8656 7.67006 22.7877 6.30097 21.2849C4.93188 19.7821 4.02324 17.9178 3.68311 15.9135H5.48129Z"
            fill="#DA1713" />
    </symbol>

    <symbol id="clock" viewBox="0 0 29 29" fill="none" xmlns="http://www.w3.org/2000/svg">
        <path
            d="M28.29 14.145C28.29 17.8965 26.7997 21.4943 24.147 24.147C21.4943 26.7997 17.8965 28.29 14.145 28.29C10.3935 28.29 6.79568 26.7997 4.14297 24.147C1.49027 21.4943 0 17.8965 0 14.145C0 10.3935 1.49027 6.79568 4.14297 4.14297C6.79568 1.49027 10.3935 0 14.145 0C17.8965 0 21.4943 1.49027 24.147 4.14297C26.7997 6.79568 28.29 10.3935 28.29 14.145ZM14.145 6.18844C14.145 5.95397 14.0519 5.7291 13.8861 5.56331C13.7203 5.39752 13.4954 5.30438 13.2609 5.30438C13.0265 5.30438 12.8016 5.39752 12.6358 5.56331C12.47 5.7291 12.3769 5.95397 12.3769 6.18844V15.9131C12.3769 16.069 12.4182 16.222 12.4964 16.3568C12.5747 16.4915 12.6871 16.6032 12.8224 16.6805L19.0109 20.2167C19.214 20.3265 19.4519 20.3525 19.6739 20.2891C19.8959 20.2257 20.0843 20.078 20.1988 19.8776C20.3133 19.6772 20.3449 19.4399 20.2868 19.2165C20.2287 18.9931 20.0855 18.8013 19.8879 18.682L14.145 15.4004V6.18844Z"
            fill="#DA1713" />
    </symbol>

    <symbol id="like" viewBox="0 0 23 29" fill="none" xmlns="http://www.w3.org/2000/svg">
        <path
            d="M9.15456 2.94181C9.26948 1.28886 10.8376 0.0107037 12.5276 0.431454L12.989 0.548132C13.8076 0.753204 14.5342 1.35428 14.7781 2.25235C15.167 3.69669 15.7204 6.6932 14.8877 10.2254C15.1481 10.19 15.4092 10.1605 15.6709 10.137C16.9314 10.0221 18.6214 10.0097 20.1188 10.5082C21.0346 10.8141 21.8761 11.7104 22.2402 12.7587C22.5655 13.6992 22.5231 14.813 21.8266 15.8224C21.9291 16.0328 22.0087 16.2502 22.0705 16.4641C22.2067 16.9415 22.2703 17.4665 22.2703 17.9774C22.2703 18.4883 22.2067 19.0134 22.0705 19.4907C22.0016 19.7294 21.9114 19.9733 21.7877 20.2049C22.0864 20.8891 21.9768 21.6528 21.7824 22.2344C21.5831 22.8081 21.2917 23.3455 20.9197 23.8255C21.0151 24.096 21.054 24.3788 21.054 24.6476C21.054 25.1885 20.8967 25.7542 20.6067 26.2598C20.0163 27.2976 18.8442 28.1426 17.1877 28.1426H11.0002C9.93065 28.1426 9.1086 27.9994 8.40853 27.7572C7.8066 27.5373 7.23137 27.2503 6.69371 26.9016L6.60885 26.8485C5.71785 26.3058 4.84276 25.7719 2.95292 25.5721C1.59874 25.4272 0.393066 24.3346 0.393066 22.839V15.7676C0.393066 14.2649 1.60405 13.236 2.79205 12.9108C4.29296 12.5024 5.57465 11.5212 6.56112 10.4181C7.55112 9.3114 8.17694 8.15699 8.39792 7.52233C8.74973 6.50581 9.02728 4.79983 9.15456 2.94358V2.94181Z"
            fill="#DA1713" />
    </symbol>

    <symbol id="tools" viewBox="0 0 30 30" fill="none" xmlns="http://www.w3.org/2000/svg">
        <path
            d="M2.62503 0.857536L0.857178 2.62539L4.74646 8.07216C4.9102 8.30153 5.12639 8.48843 5.37702 8.61728C5.62765 8.74614 5.90546 8.8132 6.18727 8.81289H6.31102C6.54345 8.81271 6.77365 8.85837 6.98842 8.94725C7.20319 9.03613 7.39833 9.16649 7.56266 9.33088L12.2917 14.0599L7.6652 18.7518C6.87389 18.5189 6.03919 18.4735 5.22732 18.6194C4.41544 18.7652 3.64872 19.0983 2.98797 19.5921C2.32723 20.0859 1.79064 20.7268 1.42078 21.4642C1.05091 22.2015 0.857942 23.0148 0.857178 23.8397C0.858237 24.5998 1.02266 25.3507 1.33929 26.0417C1.65593 26.7327 2.11739 27.3475 2.6924 27.8446C3.26741 28.3416 3.94255 28.7093 4.67206 28.9226C5.40158 29.136 6.16843 29.19 6.92066 29.0811C7.67289 28.9722 8.39292 28.7029 9.03197 28.2914C9.67103 27.8799 10.2142 27.3359 10.6246 26.6962C11.035 26.0564 11.3032 25.336 11.4108 24.5836C11.5185 23.8312 11.4632 23.0644 11.2486 22.3352L15.9405 17.7088L17.6518 19.42L17.1126 21.0359C17.009 21.3473 16.9942 21.6815 17.0697 22.0009C17.1453 22.3203 17.3083 22.6124 17.5404 22.8444L23.4734 28.7773C23.8049 29.1087 24.2545 29.2949 24.7232 29.2949C25.192 29.2949 25.6416 29.1087 25.9731 28.7773L28.7769 25.9735C29.1084 25.642 29.2946 25.1924 29.2946 24.7236C29.2946 24.2548 29.1084 23.8053 28.7769 23.4737L22.844 17.5408C22.612 17.3086 22.3199 17.1456 22.0005 17.0701C21.6811 16.9945 21.3469 17.0094 21.0355 17.113L19.4197 17.6522L17.7225 15.955L22.4604 11.2826C23.2464 11.4924 24.07 11.5189 24.8678 11.36C25.6657 11.2012 26.4164 10.8612 27.062 10.3664C27.7077 9.87156 28.2311 9.23504 28.5919 8.50593C28.9527 7.77682 29.1412 6.97459 29.1429 6.16111C29.1429 5.68555 29.081 5.22414 28.9626 4.78748L25.1794 8.57247L22.0715 7.92897L21.428 4.82284L25.2129 1.03786C24.3126 0.795769 23.3643 0.795317 22.4637 1.03655C21.5631 1.27778 20.742 1.75216 20.0831 2.41189C19.4243 3.07161 18.951 3.89336 18.711 4.7943C18.471 5.69523 18.4728 6.64352 18.7161 7.54357L14.0489 12.2779L9.33052 7.56302C8.99896 7.23156 8.81264 6.78197 8.81254 6.31314V6.18763C8.81256 5.90611 8.74536 5.62866 8.61652 5.37836C8.48768 5.12806 8.30093 4.91215 8.0718 4.74859L2.62503 0.857536ZM19.6778 19.6781C19.7599 19.5958 19.8574 19.5305 19.9648 19.486C20.0722 19.4414 20.1873 19.4185 20.3036 19.4185C20.4199 19.4185 20.535 19.4414 20.6424 19.486C20.7498 19.5305 20.8473 19.5958 20.9294 19.6781L26.233 24.9817C26.3152 25.0639 26.3804 25.1615 26.4249 25.2688C26.4693 25.3762 26.4922 25.4913 26.4922 25.6075C26.4922 25.7238 26.4693 25.8389 26.4249 25.9462C26.3804 26.0536 26.3152 26.1512 26.233 26.2334C26.1508 26.3155 26.0532 26.3807 25.9459 26.4252C25.8385 26.4697 25.7234 26.4926 25.6072 26.4926C25.491 26.4926 25.3759 26.4697 25.2685 26.4252C25.1611 26.3807 25.0635 26.3155 24.9814 26.2334L19.6778 20.9298C19.5955 20.8477 19.5302 20.7501 19.4856 20.6427C19.441 20.5354 19.4181 20.4202 19.4181 20.304C19.4181 20.1877 19.441 20.0726 19.4856 19.9652C19.5302 19.8578 19.5955 19.7603 19.6778 19.6781ZM6.16075 20.304L6.99341 20.7318L7.92861 20.7778L8.43598 21.5644L9.22268 22.0718L9.26864 23.007L9.69646 23.8397L9.26864 24.6723L9.22268 25.6075L8.43598 26.1149L7.92861 26.9016L6.99341 26.9476L6.16075 27.3754L5.32809 26.9476L4.39289 26.9016L3.88552 26.1149L3.09882 25.6075L3.05286 24.6723L2.62503 23.8397L3.05286 23.007L3.09882 22.0718L3.88552 21.5644L4.39289 20.7778L5.32809 20.7318L6.16075 20.304Z"
            fill="#DA1713" />
    </symbol>

    <symbol id="playButton" viewBox="0 0 28 28" fill="none" xmlns="http://www.w3.org/2000/svg">
        <path
            d="M11.3333 19.3333L19.3333 14L11.3333 8.66666V19.3333ZM14 27.3333C12.1556 27.3333 10.4222 26.9833 8.8 26.2833C7.17778 25.5833 5.76667 24.6333 4.56667 23.4333C3.36667 22.2333 2.41667 20.8222 1.71667 19.2C1.01667 17.5778 0.666672 15.8444 0.666672 14C0.666672 13.0444 0.766672 12.1056 0.966672 11.1833C1.16667 10.2611 1.45556 9.36666 1.83334 8.5L3.9 10.5667C3.72223 11.1444 3.58334 11.7167 3.48334 12.2833C3.38334 12.85 3.33334 13.4222 3.33334 14C3.33334 16.9778 4.36667 19.5 6.43334 21.5667C8.50001 23.6333 11.0222 24.6667 14 24.6667C16.9778 24.6667 19.5 23.6333 21.5667 21.5667C23.6333 19.5 24.6667 16.9778 24.6667 14C24.6667 11.0222 23.6333 8.5 21.5667 6.43333C19.5 4.36666 16.9778 3.33333 14 3.33333C13.4 3.33333 12.8167 3.38333 12.25 3.48333C11.6833 3.58333 11.1222 3.72222 10.5667 3.9L8.53334 1.86666C9.42223 1.46666 10.3111 1.16666 11.2 0.966664C12.0889 0.766664 13.0222 0.666664 14 0.666664C15.8444 0.666664 17.5778 1.01666 19.2 1.71666C20.8222 2.41666 22.2333 3.36666 23.4333 4.56666C24.6333 5.76666 25.5833 7.17777 26.2833 8.8C26.9833 10.4222 27.3333 12.1556 27.3333 14C27.3333 15.8444 26.9833 17.5778 26.2833 19.2C25.5833 20.8222 24.6333 22.2333 23.4333 23.4333C22.2333 24.6333 20.8222 25.5833 19.2 26.2833C17.5778 26.9833 15.8444 27.3333 14 27.3333ZM5.33334 7.33333C4.77778 7.33333 4.30556 7.13889 3.91667 6.75C3.52778 6.36111 3.33334 5.88889 3.33334 5.33333C3.33334 4.77777 3.52778 4.30555 3.91667 3.91666C4.30556 3.52778 4.77778 3.33333 5.33334 3.33333C5.88889 3.33333 6.36112 3.52778 6.75 3.91666C7.13889 4.30555 7.33334 4.77777 7.33334 5.33333C7.33334 5.88889 7.13889 6.36111 6.75 6.75C6.36112 7.13889 5.88889 7.33333 5.33334 7.33333Z"
            fill="currentColor" />
    </symbol>

    <symbol id="dzen" viewBox="0 0 29 29" fill="none" xmlns="http://www.w3.org/2000/svg">
        <g clip-path="url(#clip0_2015_22)">
            <mask id="mask0_2015_22" style="mask-type:luminance" maskUnits="userSpaceOnUse" x="0"
                y="0" width="30" height="29">
                <path
                    d="M19.0632 0H10.0632C4.54039 0 0.0632324 4.47715 0.0632324 10V18.8353C0.0632324 24.3581 4.54039 28.8353 10.0632 28.8353H19.0632C24.5861 28.8353 29.0632 24.3581 29.0632 18.8353V10C29.0632 4.47715 24.5861 0 19.0632 0Z"
                    fill="white" />
            </mask>
            <g mask="url(#mask0_2015_22)">
                <path
                    d="M14.502 28.8301H14.6176C20.3755 28.8301 23.7177 28.2537 26.0851 25.9684C28.499 23.5442 29.0564 20.1986 29.0564 14.4957V14.3344C29.0564 8.63325 28.499 5.31 26.0851 2.86173C23.7194 0.576465 20.3531 0 14.6193 0H14.5037C8.74581 0 5.40184 0.576465 3.0345 2.86173C0.62056 5.28598 0.0632324 8.63325 0.0632324 14.3344V14.4957C0.0632324 20.1969 0.62056 23.5202 3.0345 25.9684C5.37942 28.2537 8.74581 28.8301 14.502 28.8301Z"
                    fill="#202022" />
                <path
                    d="M25.6048 14.1963C25.6048 14.0865 25.5151 13.9956 25.4046 13.9904C21.4417 13.8412 19.0299 13.3386 17.3426 11.6608C15.6518 9.97972 15.1481 7.57981 14.998 3.63087C14.9945 3.52108 14.9031 3.43188 14.7909 3.43188H14.3286C14.2182 3.43188 14.1267 3.52108 14.1216 3.63087C13.9714 7.5781 13.4677 9.97972 11.7769 11.6608C10.0879 13.3403 7.67776 13.8412 3.71489 13.9904C3.60448 13.9939 3.51477 14.0848 3.51477 14.1963V14.656C3.51477 14.7658 3.60448 14.8567 3.71489 14.8619C7.67776 15.0111 10.0896 15.5137 11.7769 17.1914C13.4642 18.8692 13.968 21.2623 14.1198 25.1956C14.1233 25.3054 14.2147 25.3947 14.3268 25.3947H14.7909C14.9013 25.3947 14.9928 25.3054 14.998 25.1956C15.1498 21.2623 15.6536 18.8692 17.3409 17.1914C19.0299 15.512 21.44 15.0111 25.4029 14.8619C25.5133 14.8584 25.6031 14.7675 25.6031 14.656V14.1963H25.6048Z"
                    fill="white" />
            </g>
        </g>
        <defs>
            <clipPath id="clip0_2015_22">
                <rect width="29" height="29" fill="white" />
            </clipPath>
        </defs>
    </symbol>

    <symbol id="rutube" viewBox="0 0 29 29" fill="none" xmlns="http://www.w3.org/2000/svg">
        <g clip-path="url(#clip0_2015_29)">
            <mask id="mask0_2015_29" style="mask-type:luminance" maskUnits="userSpaceOnUse" x="0"
                y="0" width="30" height="29">
                <path
                    d="M22.2337 0H7.34177C3.44593 0 0.28772 3.15821 0.28772 7.05405V21.9459C0.28772 25.8418 3.44593 29 7.34177 29H22.2337C26.1295 29 29.2877 25.8418 29.2877 21.9459V7.05405C29.2877 3.15821 26.1295 0 22.2337 0Z"
                    fill="white" />
            </mask>
            <g mask="url(#mask0_2015_29)">
                <path d="M29.3596 0.000244141H0.28772V29.0721H29.3596V0.000244141Z" fill="#100943" />
                <path
                    d="M29.2866 14.5C37.2947 14.5 43.7866 8.00812 43.7866 -8.60436e-06C43.7866 -8.00815 37.2947 -14.5 29.2866 -14.5C21.2784 -14.5 14.7866 -8.00815 14.7866 -8.60436e-06C14.7866 8.00812 21.2784 14.5 29.2866 14.5Z"
                    fill="#ED143B" />
                <path
                    d="M18.2009 13.838H9.63324V10.4476H18.2009C18.7014 10.4476 19.0493 10.5349 19.2239 10.6872C19.3986 10.8395 19.5068 11.1221 19.5068 11.5347V12.7521C19.5068 13.187 19.3986 13.4695 19.2239 13.6219C19.0493 13.7742 18.7014 13.8393 18.2009 13.8393V13.838ZM18.7886 7.2513H5.99976V21.7501H9.63324V17.0329H16.3294L19.5068 21.7501H23.5756L20.0724 17.0109C21.3638 16.8194 21.9439 16.4236 22.4221 15.7714C22.9004 15.1191 23.1403 14.0763 23.1403 12.6844V11.5973C23.1403 10.7718 23.0529 10.1195 22.9004 9.61958C22.748 9.11962 22.4873 8.68477 22.1172 8.29418C21.7262 7.92442 21.2909 7.66403 20.7683 7.48956C20.2457 7.33724 19.5927 7.25 18.7886 7.25V7.2513Z"
                    fill="white" />
            </g>
        </g>
        <defs>
            <clipPath id="clip0_2015_29">
                <rect width="29" height="29" fill="white" />
            </clipPath>
        </defs>
    </symbol>

    <symbol id="youtube" viewBox="0 0 29 29" fill="none" xmlns="http://www.w3.org/2000/svg">
        <g clip-path="url(#clip0_2015_40)">
            <path d="M12.6357 11.646V16.9396L17.5151 14.3158L12.6357 11.646Z" fill="black" />
            <path
                d="M21.727 0H7.25C3.26825 0 0 3.26825 0 7.27302V21.75C0 25.7317 3.26825 29 7.25 29H21.727C25.7317 29 29 25.7317 29 21.727V7.27302C29 3.26825 25.7317 0 21.727 0ZM23.4762 15.2135C23.4762 16.7325 23.3381 18.2746 23.3381 18.2746C23.3381 18.2746 23.177 19.5635 22.6476 20.1389C21.9571 20.8984 21.1976 20.8984 20.8524 20.9444C18.3206 21.1286 14.523 21.1516 14.523 21.1516C14.523 21.1516 9.80476 21.0825 8.35476 20.9444C7.96349 20.8754 7.04286 20.8984 6.35238 20.1389C5.8 19.5635 5.6619 18.2746 5.6619 18.2746C5.6619 18.2746 5.52381 16.7325 5.52381 15.2135V13.7865C5.52381 12.2675 5.6619 10.7254 5.6619 10.7254C5.6619 10.7254 5.82302 9.43651 6.35238 8.86111C7.04286 8.10159 7.80238 8.07857 8.14762 8.03254C10.7024 7.84841 14.5 7.8254 14.5 7.8254C14.5 7.8254 18.2976 7.84841 20.8294 8.03254C21.1746 8.07857 21.9571 8.10159 22.6476 8.8381C23.2 9.41349 23.3381 10.7254 23.3381 10.7254C23.3381 10.7254 23.4762 12.2675 23.4762 13.7865V15.2135Z"
                fill="black" />
        </g>
        <defs>
            <clipPath id="clip0_2015_40">
                <rect width="29" height="29" fill="white" />
            </clipPath>
        </defs>
    </symbol>

    <symbol id="telegram" viewBox="0 0 29 29" fill="none" xmlns="http://www.w3.org/2000/svg">
        <g clip-path="url(#clip0_2015_47)">
            <path
                d="M25.0455 0H3.95455C1.77051 0 0 1.77051 0 3.95455V25.0455C0 27.2295 1.77051 29 3.95455 29H25.0455C27.2295 29 29 27.2295 29 25.0455V3.95455C29 1.77051 27.2295 0 25.0455 0Z"
                fill="#1C8ADB" />
            <path
                d="M22.3992 7.49715L22.0993 7.6059L5.82306 13.4702C5.70771 13.5058 5.60747 13.5788 5.53802 13.6775C5.46858 13.7763 5.43388 13.8953 5.43934 14.0159C5.44481 14.1365 5.49014 14.2519 5.56822 14.344C5.64631 14.4361 5.75274 14.4996 5.87084 14.5247L10.0841 15.6781L10.87 17.9849L11.656 20.2918C11.7012 20.4048 11.7732 20.5052 11.866 20.5841C11.9587 20.663 12.0693 20.7181 12.1882 20.7446C12.307 20.771 12.4305 20.7681 12.548 20.736C12.6654 20.7039 12.7733 20.6436 12.8621 20.5603L15.0388 18.504L19.313 21.4023C19.8353 21.7582 20.5801 21.4946 20.7136 20.908L23.5444 8.40011C23.6828 7.78056 23.0303 7.27141 22.3992 7.49715ZM20.3214 10.2736L12.9676 16.2845L12.6216 16.5679C12.5456 16.6282 12.4959 16.7156 12.4832 16.8118L12.4057 17.4511L12.1932 19.2471C12.1949 19.2689 12.1879 19.2906 12.1737 19.3073C12.1595 19.324 12.1392 19.3343 12.1174 19.3361C12.0955 19.3378 12.0739 19.3308 12.0572 19.3166C12.0405 19.3024 12.0301 19.2821 12.0284 19.2603L11.4303 17.4659L10.8124 15.6287C10.7862 15.5461 10.7897 15.457 10.8222 15.3767C10.8547 15.2964 10.9141 15.2299 10.9903 15.1887L18.6424 10.8025L20.0825 9.97863C20.2917 9.8567 20.506 10.122 20.3214 10.2736Z"
                fill="white" />
        </g>
        <defs>
            <clipPath id="clip0_2015_47">
                <rect width="29" height="29" fill="white" />
            </clipPath>
        </defs>
    </symbol>

    <symbol id="plus" viewBox="0 0 24 24" fill="none" xmlns="http://www.w3.org/2000/svg">
        <g clip-path="url(#clip0_2007_534)">
            <path
                d="M22.5 10.5001H13.5V1.50011C13.5 1.12511 13.5 0.5 13.5 0C13.2188 -0.28125 12.375 0 12 0C11.625 0 10.7812 -0.28125 10.5 0C10.5 0.421987 10.5 1.12511 10.5 1.50011V10.5001H1.5C1.125 10.5001 0.5 10.5 0 10.5C-0.28125 10.7812 0 11.6251 0 12.0001C0 12.3751 -0.28125 13.2188 0 13.5C0.5 13.5 1.125 13.5001 1.5 13.5001H10.5V22.5001C10.5 22.8751 10.5 23.5 10.5 24C10.7812 24.2812 11.625 24.0001 12 24.0001C12.375 24.0001 13.2188 24.2812 13.5 24C13.5 23.5 13.5 22.8751 13.5 22.5001V13.5001H22.5C22.875 13.5001 23.5 13.5 24 13.5C24.2812 13.2188 24 12.3751 24 12.0001C24 11.6251 24.2812 10.7812 24 10.5C23.5 10.5 22.875 10.5001 22.5 10.5001Z"
                fill="currentColor" />
        </g>
        <defs>
            <clipPath id="clip0_2007_534">
                <rect width="24" height="24" fill="currentColor" />
            </clipPath>
        </defs>
    </symbol>


</svg>