<svg width="28" height="28" viewBox="0 0 16 16" fill="#250404" xmlns="http://www.w3.org/2000/svg">
<path fill-rule="evenodd" clip-rule="evenodd" d="M15.7875 1.21645C15.9235 1.33017 15.9891 1.50737 15.96 1.68221L13.8266 14.4822C13.7988 14.6496 13.6879 14.7914 13.5322 14.8588C13.3765 14.9263 13.1973 14.9102 13.0561 14.816L6.6561 10.5494C6.5395 10.4716 6.46087 10.3485 6.43937 10.2101C6.41787 10.0716 6.45547 9.93043 6.54302 9.821L8.79786 7.00244L5.07747 9.48271C4.92818 9.58223 4.737 9.59414 4.57651 9.51389L0.309845 7.38056C0.130694 7.29099 0.022288 7.10314 0.034361 6.90321C0.0464339 6.70328 0.176656 6.52984 0.365284 6.46248L15.2986 1.12914C15.4655 1.06952 15.6516 1.10274 15.7875 1.21645ZM1.80506 7.01013L4.7642 8.4897L10.9228 4.38399C11.1279 4.24724 11.4021 4.28041 11.5687 4.46212C11.7353 4.64383 11.7446 4.91986 11.5906 5.11236L7.66457 10.0198L12.9674 13.555L14.8337 2.35704L1.80506 7.01013Z" fill="#fff"/>
</svg>
